# xmcd
# 
# Track frame offsets:
#     183
#     18558
#     35540
#     56933
# 
# Disc length: 1077
# 
# Revision: 1
# Processed by: cddbd v1.5.2PL0 Copyright (c) Steve Scherf et al.
# Submitted via: fre:ac v1.0.31
# 
DISCID=32043304
DTITLE=The Dinky Toys - One More Try
DYEAR=1990
DGENRE=Pop
TTITLE0=One More Try [Single]
TTITLE1=One More Try [Acapella]
TTITLE2=One More Try [Dub Version]
TTITLE3=One More Try [Dubby Dub]
EXTD=
EXTT0=
EXTT1=
EXTT2=
EXTT3=
PLAYORDER=
